<svg width="18" height="18" viewBox="0 0 18 18" fill="none" xmlns="http://www.w3.org/2000/svg">
<path d="M13.4997 0H4.49989C2.02517 0 0 2.02517 0 4.49989V13.5001C0 15.9742 2.02517 18 4.49989 18H13.4997C15.9744 18 17.9996 15.9742 17.9996 13.5001V4.49989C17.9996 2.02517 15.9744 0 13.4997 0ZM16.4995 13.5001C16.4995 15.1538 15.1543 16.5 13.4997 16.5H4.49989C2.84596 16.5 1.50004 15.1538 1.50004 13.5001V4.49989C1.50004 2.84574 2.84596 1.50004 4.49989 1.50004H13.4997C15.1543 1.50004 16.4995 2.84574 16.4995 4.49989V13.5001Z" fill="#125570"/>
<path fill-rule="evenodd" clip-rule="evenodd" d="M0.999751 9.5C0.599751 4.3 2.16642 2 2.99975 1.5L7.49976 1L14.4998 1.5L15.9998 2.5L16.9998 4.5V9V12.5L16.4998 15.5L15.4998 16.5L12.9998 17.5H10.4998L5.49976 17C4.66642 17 2.89975 16.9 2.49976 16.5C2.46404 16.4643 2.42833 16.4311 2.39261 16.398C1.92833 15.9668 1.46404 15.5357 0.999751 9.5ZM8.99977 4.5C6.51402 4.5 4.49988 6.51436 4.49988 8.99989C4.49988 11.4845 6.51402 13.5002 8.99977 13.5002C11.4848 13.5002 13.4997 11.4845 13.4997 8.99989C13.4997 6.51436 11.4848 4.5 8.99977 4.5ZM8.99977 12.0002C7.34311 12.0002 5.99991 10.657 5.99991 8.99989C5.99991 7.3428 7.34311 6.00004 8.99977 6.00004C10.6564 6.00004 11.9996 7.3428 11.9996 8.99989C11.9996 10.657 10.6564 12.0002 8.99977 12.0002ZM15.0003 4.12448C15.0003 4.74579 14.4966 5.24946 13.8753 5.24946C13.254 5.24946 12.7504 4.74579 12.7504 4.12448C12.7504 3.50318 13.254 2.99951 13.8753 2.99951C14.4966 2.99951 15.0003 3.50318 15.0003 4.12448Z" fill="#125570"/>
</svg>
