<svg width="22" height="17" viewBox="0 0 22 17" fill="none" xmlns="http://www.w3.org/2000/svg">
<path d="M20.1251 0.150093C20.1251 0.150093 22.1601 -0.585761 21.9899 1.20117C21.9338 1.93703 21.4252 4.51276 21.0292 7.29832L19.6726 15.5506C19.6726 15.5506 19.5594 16.7595 18.5417 16.9698C17.5245 17.1796 15.9981 16.234 15.7153 16.0237C15.489 15.8658 11.4756 13.5004 10.0624 12.3444C9.6664 12.0287 9.21383 11.3982 10.119 10.6624L16.0542 5.40599C16.7325 4.77553 17.4108 3.30382 14.5844 5.09076L6.66972 10.0839C6.66972 10.0839 5.76512 10.6099 4.06957 10.1368L0.394577 9.08526C0.394577 9.08526 -0.96207 8.29694 1.35575 7.50863C7.00915 5.0383 13.9626 2.51551 20.1241 0.150093H20.1251Z" fill="#125570"/>
</svg>
